<svg width="94" height="36" viewBox="0 0 94 36" fill="none" xmlns="http://www.w3.org/2000/svg">
<mask id="mask0_1014_277" style="mask-type:alpha" maskUnits="userSpaceOnUse" x="0" y="0" width="94" height="36">
<rect width="94" height="36" fill="#D9D9D9"/>
</mask>
<g mask="url(#mask0_1014_277)">
<path d="M90.9341 25.5297C91.1046 25.5297 91.1898 25.6004 91.1898 25.7419V25.8025C91.1898 25.9137 91.0945 26.0653 90.904 26.2573C90.7135 26.4392 90.5681 26.6413 90.4679 26.8636L87.6253 33.139C87.4448 33.5533 87.2894 33.8817 87.1591 34.1242C87.0387 34.3667 86.8583 34.6598 86.6176 35.0034C86.387 35.3469 86.1213 35.6046 85.8205 35.7764C85.5197 35.9482 85.1938 36.0341 84.8429 36.0341C84.2513 36.0341 83.765 35.8775 83.384 35.5642C83.003 35.2611 82.8125 34.9225 82.8125 34.5486C82.8125 34.3263 82.8777 34.1444 83.008 34.0029C83.1384 33.8615 83.3188 33.7907 83.5495 33.7907C83.77 33.7907 83.9505 33.8716 84.0909 34.0333C84.2313 34.2051 84.3265 34.392 84.3767 34.5941C84.4368 34.8063 84.5271 34.9933 84.6474 35.155C84.7677 35.3267 84.9231 35.4126 85.1136 35.4126C85.635 35.4126 86.1965 34.6598 86.7981 33.1541L83.8653 26.8636C83.755 26.6413 83.5996 26.4392 83.3991 26.2573C83.1985 26.0653 83.0983 25.9137 83.0983 25.8025V25.7419C83.0983 25.6004 83.1885 25.5297 83.369 25.5297H85.7453C85.9158 25.5297 86.001 25.6055 86.001 25.7571V25.8025C86.001 25.8834 85.9559 25.9743 85.8656 26.0754C85.7754 26.1764 85.7102 26.2724 85.6701 26.3634C85.64 26.4543 85.6701 26.6261 85.7603 26.8787L87.7456 31.4716L89.6106 27.0455C89.7008 26.7423 89.7008 26.5352 89.6106 26.424C89.5203 26.3027 89.395 26.1916 89.2346 26.0905C89.0742 25.9794 88.9939 25.8834 88.9939 25.8025V25.7571C88.9939 25.6055 89.0842 25.5297 89.2647 25.5297H90.9341Z" fill="#020202"/>
<path d="M78.4805 32.9571C77.3976 32.9571 76.4802 32.5882 75.7282 31.8505C74.9862 31.1027 74.6152 30.1983 74.6152 29.1373C74.6152 28.0156 74.9812 27.1112 75.7132 26.424C76.4451 25.7368 77.3425 25.3882 78.4053 25.3781C79.2275 25.368 79.9344 25.5701 80.526 25.9844C81.1276 26.3886 81.4284 26.8535 81.4284 27.3789C81.4284 27.5709 81.3632 27.7326 81.2328 27.864C81.1125 27.9853 80.922 28.0408 80.6613 28.0307C80.4207 28.0206 80.2051 27.9044 80.0146 27.6821C79.8241 27.4598 79.6687 27.2223 79.5484 26.9697C79.428 26.7171 79.2425 26.4846 78.9919 26.2724C78.7512 26.0602 78.4605 25.9541 78.1196 25.9541C77.6082 25.9541 77.1921 26.1764 76.8712 26.6211C76.5504 27.0657 76.39 27.6215 76.39 28.2884C76.39 29.3192 76.6356 30.1478 77.1269 30.7743C77.6182 31.3907 78.2649 31.6989 79.0671 31.6989C79.9394 31.6989 80.5861 31.2846 81.0072 30.456C81.0874 30.3347 81.1927 30.2893 81.3231 30.3196C81.4534 30.3499 81.5086 30.4408 81.4885 30.5924C81.4083 31.2392 81.1025 31.7949 80.5711 32.2598C80.0497 32.7246 79.3528 32.9571 78.4805 32.9571Z" fill="#020202"/>
<path d="M72.0903 31.5322C72.1003 31.7545 72.1906 31.9566 72.361 32.1385C72.5415 32.3103 72.6318 32.4417 72.6318 32.5326V32.5933C72.6318 32.7448 72.5215 32.8206 72.3009 32.8206H70.105C69.8844 32.8206 69.7742 32.7448 69.7742 32.5933V32.5326C69.7742 32.4417 69.8644 32.3103 70.0449 32.1385C70.2354 31.9566 70.3256 31.7545 70.3156 31.5322L70.1652 28.6067C70.095 26.9394 69.5686 26.1057 68.586 26.1057C68.1147 26.1057 67.7337 26.2825 67.443 26.6362C67.1522 26.9798 67.0068 27.4295 67.0068 27.9853V31.5474C67.0068 31.7697 67.1071 31.9667 67.3076 32.1385C67.5182 32.3103 67.6234 32.4417 67.6234 32.5326V32.5933C67.6234 32.7448 67.5131 32.8206 67.2926 32.8206H64.9614C64.7508 32.8206 64.6455 32.7448 64.6455 32.5933V32.5326C64.6455 32.4417 64.7458 32.3103 64.9463 32.1385C65.1468 31.9667 65.2471 31.7697 65.2471 31.5474V27.4851C65.2471 27.2931 65.187 27.1364 65.0666 27.0152C64.9563 26.8939 64.846 26.7979 64.7358 26.7272C64.6255 26.6463 64.5703 26.5604 64.5703 26.4695V26.424C64.5703 26.3229 64.6606 26.232 64.841 26.1512L66.2999 25.4387C66.4603 25.368 66.5756 25.3629 66.6458 25.4236C66.726 25.4741 66.7662 25.5701 66.7662 25.7116V26.6968C66.9767 26.2825 67.2825 25.9592 67.6836 25.7267C68.0847 25.4943 68.5409 25.3781 69.0522 25.3781C69.8243 25.3781 70.476 25.6459 71.0074 26.1815C71.5388 26.7171 71.8396 27.5457 71.9098 28.6674L72.0903 31.5322Z" fill="#020202"/>
<path d="M61.9059 30.5773C61.9861 30.4661 62.0863 30.4257 62.2067 30.456C62.337 30.4863 62.3972 30.5773 62.3871 30.7288C62.3069 31.2644 61.9961 31.7697 61.4547 32.2446C60.9132 32.7196 60.2063 32.9571 59.334 32.9571C58.3113 32.9571 57.459 32.6034 56.7772 31.896C56.1054 31.1886 55.7695 30.2589 55.7695 29.1069C55.7695 28.0358 56.1155 27.1465 56.8073 26.4392C57.5092 25.7318 58.3614 25.3781 59.3641 25.3781C60.2665 25.3781 60.9583 25.6055 61.4396 26.0602C61.9309 26.5048 62.1766 27.0202 62.1766 27.6063C62.1766 28.1318 61.9209 28.4855 61.4095 28.6674L57.7699 30.0164C57.9604 30.5419 58.2461 30.9512 58.6271 31.2442C59.0081 31.5373 59.4593 31.6838 59.9807 31.6838C60.4319 31.6838 60.823 31.5827 61.1539 31.3806C61.4948 31.1684 61.7454 30.9006 61.9059 30.5773ZM59.0633 25.9541C58.592 25.9541 58.216 26.1815 57.9353 26.6362C57.6545 27.0909 57.5142 27.6872 57.5142 28.4248C57.5142 28.7684 57.5443 29.0918 57.6044 29.3949L60.1011 28.3036C60.3617 28.1823 60.4921 27.9701 60.4921 27.6669C60.4921 27.3032 60.3517 26.9293 60.071 26.5453C59.8003 26.1512 59.4644 25.9541 59.0633 25.9541Z" fill="#020202"/>
<path d="M52.8358 25.5297C53.0463 25.5297 53.2067 25.5499 53.317 25.5903C53.4374 25.6307 53.5025 25.6813 53.5126 25.7419C53.5326 25.8025 53.5226 25.8733 53.4825 25.9541C53.4323 26.0754 53.3471 26.1613 53.2268 26.2118C53.1165 26.2623 52.9511 26.3027 52.7305 26.3331C52.5199 26.3634 52.3795 26.3886 52.3094 26.4088C52.5901 26.6615 52.8157 26.9697 52.9862 27.3335C53.1666 27.6973 53.2569 28.0611 53.2569 28.4248C53.2569 29.0211 53.1015 29.5566 52.7906 30.0316C52.4798 30.4964 52.0537 30.8552 51.5122 31.1078C52.7555 31.4008 53.3772 32.0072 53.3772 32.9267C53.3772 33.5937 53.0363 34.1242 52.3545 34.5183C51.6727 34.9225 50.8054 35.1246 49.7526 35.1246C48.6797 35.1246 47.8325 34.9023 47.2108 34.4577C46.5891 34.0232 46.2783 33.5128 46.2783 32.9267C46.2783 32.7246 46.3385 32.5579 46.4588 32.4265C46.5891 32.2851 46.7696 32.2143 47.0002 32.2143C47.2008 32.2143 47.3662 32.2952 47.4966 32.4568C47.6369 32.6185 47.7573 32.8105 47.8575 33.0328C47.9578 33.2653 48.0731 33.4977 48.2034 33.7301C48.3438 33.9625 48.5494 34.1596 48.8201 34.3213C49.0908 34.4829 49.4217 34.5638 49.8127 34.5638C50.3542 34.5638 50.7853 34.4173 51.1062 34.1242C51.437 33.8413 51.6025 33.4674 51.6025 33.0025C51.6025 32.568 51.4822 32.2093 51.2415 31.9263C51.0109 31.6434 50.6901 31.4817 50.279 31.4413C50.0383 31.4615 49.8528 31.4716 49.7225 31.4716C48.7699 31.4716 47.9678 31.1886 47.3161 30.6227C46.6643 30.0467 46.3385 29.3394 46.3385 28.5006C46.3385 27.5811 46.6593 26.8333 47.301 26.2573C47.9427 25.6712 48.775 25.3781 49.7977 25.3781C50.0684 25.3781 50.4845 25.4034 51.046 25.4539C51.6075 25.5044 52.2041 25.5297 52.8358 25.5297ZM48.0831 27.7276C48.0831 28.5865 48.2736 29.3293 48.6546 29.9558C49.0357 30.5722 49.4869 30.8804 50.0082 30.8804C50.4695 30.8804 50.8354 30.7137 51.1062 30.3802C51.3769 30.0467 51.5122 29.6173 51.5122 29.0918C51.5122 28.2328 51.3217 27.4952 50.9407 26.8787C50.5697 26.2623 50.0935 25.9541 49.5119 25.9541C49.0707 25.9541 48.7198 26.1208 48.4591 26.4543C48.2085 26.7777 48.0831 27.2021 48.0831 27.7276Z" fill="#020202"/>
<path d="M43.6538 31.4413C43.6739 31.6636 43.729 31.8404 43.8193 31.9718C43.9195 32.0931 44.0148 32.1689 44.105 32.1992C44.2053 32.2295 44.2905 32.2699 44.3607 32.3204C44.4409 32.371 44.481 32.4367 44.481 32.5175C44.481 32.7701 44.0749 32.8964 43.2628 32.8964C42.8617 32.8964 42.5659 32.8358 42.3754 32.7145C42.1949 32.5832 42.0897 32.3407 42.0596 31.987C41.6585 32.6337 40.9617 32.9571 39.969 32.9571C39.1268 32.9571 38.445 32.76 37.9236 32.3659C37.4122 31.9617 37.1565 31.3958 37.1565 30.6682C37.1465 29.9508 37.4022 29.395 37.9236 29.0009C38.445 28.5967 39.1017 28.3945 39.8938 28.3945C40.6157 28.3945 41.1973 28.5663 41.6385 28.9099L41.6084 28.6068C41.5181 27.6771 41.3577 27 41.1271 26.5756C40.8965 26.1512 40.5305 25.939 40.0292 25.939C39.7183 25.939 39.4577 26.035 39.2471 26.227C39.0466 26.419 38.9062 26.6312 38.826 26.8636C38.7558 27.0859 38.6505 27.2931 38.5101 27.4851C38.3698 27.6771 38.1943 27.7731 37.9837 27.7731C37.7631 27.7731 37.5827 27.7124 37.4423 27.5912C37.3119 27.4598 37.2468 27.288 37.2468 27.0758C37.2468 26.5908 37.5075 26.1865 38.0289 25.8632C38.5603 25.5398 39.227 25.3781 40.0292 25.3781C40.9717 25.3781 41.7337 25.6611 42.3153 26.227C42.8968 26.7828 43.2427 27.5508 43.353 28.531L43.6538 31.4413ZM40.4653 32.3811C40.8764 32.3811 41.2073 32.2295 41.458 31.9263C41.7187 31.6232 41.839 31.2644 41.8189 30.8501L41.7738 30.3802C41.7437 29.9457 41.5983 29.6021 41.3377 29.3495C41.077 29.0969 40.7461 28.9705 40.345 28.9705C39.9239 28.9705 39.583 29.107 39.3223 29.3798C39.0616 29.6425 38.9313 30.0013 38.9313 30.456C38.9313 30.9916 39.0716 31.4463 39.3524 31.8202C39.6431 32.1941 40.0141 32.3811 40.4653 32.3811Z" fill="#020202"/>
<path d="M82.3134 9.25768C82.4012 10.4956 82.8398 11.8042 83.6294 13.1836C84.419 14.5629 85.3227 15.6063 86.3404 16.3137C87.3757 17.0034 88.2179 17.1537 88.8671 16.7646C89.5339 16.3756 89.8234 15.5621 89.7357 14.3242C89.6479 13.0686 89.2093 11.76 88.4197 10.3983C87.6476 9.01895 86.744 7.98442 85.7087 7.29473C84.691 6.58737 83.8488 6.42821 83.182 6.81726C82.5152 7.20631 82.2257 8.01979 82.3134 9.25768ZM81.0764 16.6055C79.7078 15.2792 79.0234 13.6787 79.0234 11.8042C79.0234 9.912 79.7078 8.30274 81.0764 6.97642C82.445 5.6501 84.0944 4.98695 86.0246 4.98695C87.9547 4.98695 89.6041 5.6501 90.9727 6.97642C92.3414 8.30274 93.0257 9.912 93.0257 11.8042C93.0257 13.6787 92.3414 15.2792 90.9727 16.6055C89.6041 17.9318 87.9547 18.5949 86.0246 18.5949C84.0944 18.5949 82.445 17.9318 81.0764 16.6055Z" fill="#020202"/>
<path d="M71.8082 3.63411C71.4047 3.20968 71.2029 2.70568 71.2029 2.1221C71.2029 1.53853 71.4047 1.04337 71.8082 0.636631C72.2293 0.21221 72.7294 0 73.3085 0C73.8875 0 74.3788 0.21221 74.7824 0.636631C75.2035 1.04337 75.4141 1.53853 75.4141 2.1221C75.4141 2.70568 75.2035 3.20968 74.7824 3.63411C74.3788 4.04084 73.8875 4.24421 73.3085 4.24421C72.7294 4.24421 72.2293 4.04084 71.8082 3.63411ZM71.2029 6.71116C71.2029 6.35747 71.0713 6.06568 70.8081 5.83579L70.3606 5.46442C70.2553 5.376 70.2203 5.27874 70.2553 5.17263C70.308 5.04884 70.3957 4.98695 70.5185 4.98695H75.4141V16.8707C75.4141 17.2244 75.5544 17.5162 75.8352 17.7461L76.2826 18.1175C76.3704 18.2059 76.3879 18.312 76.3353 18.4358C76.3002 18.5419 76.2212 18.5949 76.0984 18.5949H70.5185C70.3957 18.5949 70.308 18.5419 70.2553 18.4358C70.2203 18.312 70.2553 18.2059 70.3606 18.1175L70.8081 17.7461C71.0713 17.5162 71.2029 17.2244 71.2029 16.8707V6.71116Z" fill="#020202"/>
<path d="M54.2331 6.71116C54.2331 6.35747 54.1015 6.06568 53.8383 5.83579L53.3909 5.46442C53.2856 5.376 53.2505 5.27874 53.2856 5.17263C53.3383 5.04884 53.426 4.98695 53.5488 4.98695H58.4443V7.50695C58.883 6.71116 59.4182 6.09221 60.0499 5.6501C60.6991 5.208 61.3834 4.98695 62.1028 4.98695C63.4013 4.98695 64.5067 5.6501 65.4191 6.97642C66.3316 8.30274 66.7878 9.90316 66.7878 11.7777C66.7878 12.3436 66.779 14.0413 66.7615 16.8707C66.7615 17.2244 66.9018 17.5162 67.1826 17.7461L67.63 18.1175C67.7178 18.2059 67.7353 18.312 67.6827 18.4358C67.6476 18.5419 67.5686 18.5949 67.4458 18.5949H61.8659C61.7431 18.5949 61.6554 18.5419 61.6027 18.4358C61.5676 18.312 61.6027 18.2059 61.708 18.1175L62.1555 17.7461C62.4187 17.5162 62.5503 17.2244 62.5503 16.8707C62.5678 14.5541 62.5766 13.1747 62.5766 12.7326C62.5415 10.7874 62.3572 9.39031 62.0239 8.54147C61.6905 7.67495 61.0325 7.24168 60.0499 7.24168C59.5586 7.24168 59.1725 7.52463 58.8918 8.09052C58.611 8.65642 58.4707 9.33726 58.4707 10.1331V16.8707C58.4707 17.2244 58.6023 17.5162 58.8655 17.7461L59.3129 18.1175C59.4006 18.2059 59.427 18.312 59.3919 18.4358C59.3568 18.5419 59.2778 18.5949 59.155 18.5949H53.5488C53.426 18.5949 53.3383 18.5419 53.2856 18.4358C53.2505 18.312 53.2856 18.2059 53.3909 18.1175L53.8383 17.7461C54.1015 17.5162 54.2331 17.2244 54.2331 16.8707V6.71116Z" fill="#020202"/>
<path d="M42.2133 5.80927C41.9501 6.35748 41.5729 7.14442 41.0816 8.17011C40.5903 9.19579 40.2218 9.9739 39.9761 10.5044C39.748 11.0173 39.4761 11.6274 39.1602 12.3347C38.8619 13.0244 38.6426 13.5992 38.5022 14.0589C38.3618 14.5011 38.2741 14.8901 38.239 15.2261C38.1337 16.3579 38.5636 17.0829 39.5287 17.4013C40.4411 17.7019 41.3886 17.5427 42.3713 16.9238C43.582 16.1811 44.1786 15.1023 44.161 13.6876C44.161 13.2808 44.0996 12.8564 43.9768 12.4143L42.2133 5.80927ZM49.4513 16.3933C49.6444 17.0476 50.0304 17.5604 50.6094 17.9318L50.8726 18.091C50.9954 18.1617 51.0305 18.2678 50.9779 18.4093C50.9428 18.5331 50.8638 18.595 50.741 18.595H44.6611C44.5207 18.595 44.433 18.5331 44.3979 18.4093C44.3628 18.2678 44.3979 18.1705 44.5032 18.1175C44.7664 17.9406 44.9506 17.7107 45.0559 17.4278C45.1612 17.1448 45.1787 16.8531 45.1085 16.5524L44.7927 15.4383C44.547 16.1103 44.1786 16.6939 43.6873 17.1891C43.2135 17.6842 42.6959 18.0467 42.1344 18.2766C41.5729 18.4888 40.9851 18.595 40.3709 18.595C39.7744 18.5773 39.2304 18.4535 38.7391 18.2236C38.2478 17.976 37.8354 17.5958 37.5021 17.083C37.1862 16.5701 37.0108 15.96 36.9757 15.2526C36.9581 14.6867 37.1599 13.8909 37.581 12.8653C38.0197 11.8396 38.783 10.2126 39.8709 7.98442C40.9763 5.75621 41.8712 3.89053 42.5555 2.38737C42.6959 2.06905 42.7134 1.7419 42.6081 1.4059C42.5204 1.0699 42.3274 0.804633 42.0291 0.610107L41.8712 0.530527C41.7484 0.45979 41.7045 0.362527 41.7396 0.238738C41.7747 0.0972644 41.8624 0.0265274 42.0028 0.0265274H46.214C46.3368 0.0265274 46.4158 0.0972644 46.4509 0.238738C46.486 0.362527 46.4509 0.45979 46.3456 0.530527L46.0034 0.742738C45.7402 0.901896 45.5472 1.13179 45.4244 1.43242C45.3191 1.71537 45.3103 2.00716 45.3981 2.30779L49.4513 16.3933Z" fill="#020202"/>
<path d="M15.9795 6.66232C23.3286 7.13347 29.1396 13.0903 29.1396 20.3693L29.1348 20.7238C28.9413 28.1461 22.7051 34.1055 15.04 34.1057V29.3371C7.81089 28.8736 2.07005 23.1033 1.88477 15.9865L1.87988 15.632C1.87988 8.04552 8.19246 1.89494 15.9795 1.89474V6.66232ZM16.54 9.77071C21.9349 10.476 26.1298 14.9284 26.1299 20.3684C26.1299 22.8435 25.1769 26.2696 21.9111 28.7893L21.5879 29.0295L21.5234 29.0715C21.1941 29.2612 20.7679 29.1746 20.541 28.8596C20.3142 28.5445 20.3671 28.1127 20.6514 27.8606L20.7119 27.8127L20.9912 27.6037C23.8183 25.4234 24.6299 22.4822 24.6299 20.3684C24.6298 15.8006 21.1431 11.9744 16.54 11.2824V32.5188C22.8195 31.797 27.6392 26.6024 27.6396 20.3693C27.6396 14.1359 22.8199 8.93974 16.54 8.21798V9.77071ZM14.4795 3.48067C8.19965 4.20244 3.37988 9.39857 3.37988 15.632C3.38012 21.8653 8.19986 27.0597 14.4795 27.7815V3.48067Z" fill="#020202"/>
</g>
</svg>
